<?xml version="1.0" standalone="no"?>
<!DOCTYPE svg PUBLIC "-//W3C//DTD SVG 20010904//EN"
 "http://www.w3.org/TR/2001/REC-SVG-20010904/DTD/svg10.dtd">
<svg version="1.0" xmlns="http://www.w3.org/2000/svg"
 width="256.000000pt" height="256.000000pt" viewBox="0 0 256.000000 256.000000"
 preserveAspectRatio="xMidYMid meet">
<metadata>
Created by potrace 1.11, written by Peter Selinger 2001-2013
</metadata>
<g transform="translate(0.000000,256.000000) scale(0.100000,-0.100000)"
fill="#000000" stroke="none">
<path d="M1250 2421 c-9 -24 -92 -121 -103 -121 -1 0 -13 20 -27 45 -28 50
-40 53 -53 9 -29 -98 -38 -114 -65 -114 -52 1 -118 25 -157 57 -45 38 -63 31
-46 -18 11 -33 15 -109 5 -109 -3 0 -15 5 -27 12 -38 21 -43 17 -46 -29 -6
-127 -85 -182 -243 -169 -82 7 -96 0 -78 -34 6 -12 13 -38 14 -58 2 -20 11
-57 21 -82 11 -31 15 -58 10 -87 -6 -44 -29 -78 -46 -67 -5 3 -8 0 -7 -7 2 -7
-22 -21 -57 -33 -33 -12 -64 -24 -70 -27 -5 -4 -27 -9 -47 -13 -45 -8 -48 -23
-12 -57 40 -37 115 -137 119 -159 3 -15 -4 -22 -33 -30 -20 -5 -45 -10 -54
-10 -11 0 -18 -8 -18 -20 0 -13 7 -20 18 -20 10 0 26 -6 36 -13 18 -13 17 -15
-6 -38 -13 -14 -52 -48 -86 -78 -33 -29 -58 -59 -56 -66 3 -7 26 -15 50 -19
63 -8 109 -32 123 -63 15 -33 4 -140 -15 -147 -32 -12 -12 -33 42 -45 41 -9
58 -18 61 -32 3 -10 9 -20 14 -20 5 -1 15 -2 22 -3 8 -1 13 -22 15 -61 3 -64
13 -78 46 -65 25 9 63 4 95 -12 23 -12 23 -16 18 -100 -6 -91 0 -105 36 -86
27 14 30 5 20 -56 -8 -45 -7 -57 6 -68 20 -17 29 -16 66 4 56 30 146 50 201
46 30 -3 56 -7 59 -10 3 -2 10 -31 16 -64 14 -77 22 -84 57 -51 15 15 36 27
46 27 11 0 24 7 31 16 10 14 13 13 24 -15 20 -47 37 -38 58 32 14 47 23 63 39
65 29 4 94 -47 161 -127 70 -85 88 -89 98 -23 4 26 14 62 22 80 25 52 89 68
134 33 29 -22 49 -17 50 12 0 12 8 39 17 60 l17 38 24 -25 c38 -40 51 -34 48
21 l-2 48 68 -3 c45 -2 67 0 67 8 0 6 8 10 18 8 15 -3 17 5 13 78 l-3 82 33
16 c47 24 111 31 139 16 15 -8 25 -9 29 -2 4 7 20 8 44 3 41 -10 51 5 20 30
-30 25 -93 110 -93 126 0 13 12 15 75 11 77 -5 92 3 62 34 -21 22 -81 102 -94
125 -33 59 2 117 103 174 l54 31 -25 33 -25 33 22 6 c13 3 38 6 56 6 25 0 32
4 32 19 0 11 -9 22 -20 26 -30 9 -115 79 -141 116 l-22 32 21 41 c12 23 35 55
52 72 35 39 25 59 -34 67 -23 4 -44 15 -53 27 -9 13 -25 20 -47 20 -18 0 -41
6 -52 14 -18 14 -18 15 11 47 17 19 38 39 48 47 9 7 17 22 17 32 0 16 -4 17
-32 10 -18 -5 -53 -10 -78 -12 l-45 -3 3 45 c2 25 14 69 28 99 14 31 21 58 16
63 -5 5 -28 4 -53 -1 -24 -5 -72 -13 -106 -17 -61 -6 -63 -6 -64 17 -4 53 2
85 21 117 38 64 30 66 -104 25 -25 -8 -33 9 -41 89 -4 37 -11 71 -16 74 -5 3
-26 -11 -46 -31 -43 -43 -83 -75 -94 -75 -4 0 -13 15 -19 34 -12 36 -27 40
-54 13 -16 -15 -18 -15 -36 3 -26 26 -31 25 -87 -10 -26 -16 -49 -30 -53 -30
-12 0 -40 82 -46 135 -5 43 -11 55 -24 55 -10 0 -23 -13 -30 -29z"/>
</g>
</svg>
